<?xml version="1.0" encoding="UTF-8"?>
<svg version="1.1" xmlns="http://www.w3.org/2000/svg" width="400" height="400">
<path d="M0 0 C2.98877309 1.8072238 4.38520868 3.70660158 6.2890625 6.59375 C9.21833761 10.00987771 11.48969476 11.0218709 15.98616028 11.41491699 C19.49496264 11.56117501 22.98925341 11.54988768 26.5 11.5 C27.96161307 11.50810117 29.42321091 11.51978695 30.88476562 11.53515625 C34.44478058 11.56484516 38.00256288 11.54576653 41.5625 11.5 C41.85527832 10.71069092 42.14805664 9.92138184 42.44970703 9.1081543 C43.71148664 6.15080643 44.83818488 5.14182932 47.4375 3.3125 C48.11554688 2.82394531 48.79359375 2.33539063 49.4921875 1.83203125 C56.1981419 -2.48255451 62.79764708 -2.14638923 70.5625 -1.5 C76.75616978 0.08398599 81.11583163 4.19944182 84.5625 9.5 C84.5625 10.16 84.5625 10.82 84.5625 11.5 C95.1225 11.5 105.6825 11.5 116.5625 11.5 C117.2225 9.85 117.8825 8.2 118.5625 6.5 C120.11328125 4.76953125 120.11328125 4.76953125 121.875 3.3125 C122.44863281 2.82394531 123.02226562 2.33539063 123.61328125 1.83203125 C130.23189773 -2.69091108 137.88423693 -2.40471337 145.5625 -1.5 C151.36324592 0.71227427 156.28256472 4.13283318 159.5625 9.5 C159.5625 10.16 159.5625 10.82 159.5625 11.5 C163.85061214 11.55512795 168.134651 11.55729797 172.42260742 11.51220703 C173.87832737 11.50413852 175.33419957 11.51007772 176.78979492 11.53076172 C185.34095171 11.87243479 185.34095171 11.87243479 192.99536133 8.74023438 C194.85392797 6.6636417 194.85392797 6.6636417 196.24365234 4.45898438 C198.57838096 0.99103502 201.58344752 -0.47809246 205.5625 -1.5 C212.53227124 -2.28257081 219.63937733 -2.63512897 225.81640625 1.09765625 C230.69842264 5.01855979 234.68926295 9.45615969 236.5625 15.5 C237.36764105 23.33608208 237.68710392 31.11922577 232.5625 37.5 C227.75801361 42.54521222 223.40072945 46.10562995 216.29296875 46.8359375 C203.20539157 46.98023273 203.20539157 46.98023273 197.5625 42.5 C196.64687397 41.13995127 195.73851775 39.77499119 194.8359375 38.40625 C191.90666239 34.99012229 189.63530524 33.9781291 185.13883972 33.58508301 C181.63003736 33.43882499 178.13574659 33.45011232 174.625 33.5 C173.16338693 33.49189883 171.70178909 33.48021305 170.24023438 33.46484375 C166.68021942 33.43515484 163.12243712 33.45423347 159.5625 33.5 C159.26972168 34.28930908 158.97694336 35.07861816 158.67529297 35.8918457 C157.41351336 38.84919357 156.28681512 39.85817068 153.6875 41.6875 C152.67042969 42.42033203 152.67042969 42.42033203 151.6328125 43.16796875 C144.9268581 47.48255451 138.32735292 47.14638923 130.5625 46.5 C124.36883022 44.91601401 120.00916837 40.80055818 116.5625 35.5 C116.5625 34.84 116.5625 34.18 116.5625 33.5 C106.0025 33.5 95.4425 33.5 84.5625 33.5 C83.9025 35.15 83.2425 36.8 82.5625 38.5 C81.01171875 40.23046875 81.01171875 40.23046875 79.25 41.6875 C78.67636719 42.17605469 78.10273438 42.66460937 77.51171875 43.16796875 C70.89310227 47.69091108 63.24076307 47.40471337 55.5625 46.5 C49.76175408 44.28772573 44.84243528 40.86716682 41.5625 35.5 C41.5625 34.84 41.5625 34.18 41.5625 33.5 C37.27438786 33.44487205 32.990349 33.44270203 28.70239258 33.48779297 C27.24667263 33.49586148 25.79080043 33.48992228 24.33520508 33.46923828 C15.78404829 33.12756521 15.78404829 33.12756521 8.12963867 36.25976562 C6.27107203 38.3363583 6.27107203 38.3363583 4.88134766 40.54101562 C2.54661904 44.00896498 -0.45844752 45.47809246 -4.4375 46.5 C-11.40727124 47.28257081 -18.51437733 47.63512897 -24.69140625 43.90234375 C-30.98402728 38.84853849 -34.60970473 33.63897636 -36.1875 25.75 C-36.80786947 19.77189421 -35.54551117 14.59290998 -32.75 9.3125 C-24.56627945 -0.64067364 -12.68612729 -5.62169562 0 0 Z M51.625 15.75 C50.2122282 19.40658582 49.8939816 22.66916424 50.5625 26.5 C52.37418887 30.19305808 53.95736659 32.07365601 57.3125 34.4375 C61.32630395 35.74970514 64.58617877 35.82017027 68.5625 34.5 C71.5174485 32.66831486 73.98082955 30.6633409 75.5625 27.5 C76.07287087 23.44619711 76.45524541 19.3225342 74.62109375 15.578125 C71.40689333 11.50747619 68.17781295 9.91294415 63.1875 9.125 C58.32747951 9.81928864 54.75952671 12.10990446 51.625 15.75 Z M204.5625 12.5 C200.76445858 16.19539165 199.655381 19.20578292 199.5625 24.5 C201.21064396 29.16974122 203.34074091 31.90937511 207.5625 34.5 C211.59527723 35.59984834 213.79496584 35.77089441 217.75 34.375 C222.07671137 31.49052575 224.12159639 29.11664656 225.5 24.0625 C225.57350421 19.87275996 224.87599744 17.97024616 222.5625 14.5 C217.06209757 8.84680861 211.12978928 8.12180715 204.5625 12.5 Z " fill="#000000" transform="translate(99.4375,177.5)"/>
</svg>
