<?xml version="1.0" encoding="utf-8"?>
<!-- Generator: Adobe Illustrator 15.1.0, SVG Export Plug-In . SVG Version: 6.00 Build 0)  -->
<!DOCTYPE svg PUBLIC "-//W3C//DTD SVG 1.1//EN" "http://www.w3.org/Graphics/SVG/1.1/DTD/svg11.dtd">
<svg version="1.1" id="Ebene_1" xmlns="http://www.w3.org/2000/svg" xmlns:xlink="http://www.w3.org/1999/xlink" x="0px" y="0px"
	 width="850.389px" height="850.391px" viewBox="0 0 850.389 850.391" enable-background="new 0 0 850.389 850.391"
	 xml:space="preserve">
<g>
	<path d="M146.219,329.418c-40.467,0-73.501,33.435-73.501,74.417c0,40.965,33.035,74.4,73.501,74.4
		c35.83,0,66.069-26.368,72.105-61.216h140.039c6.501,34.848,36.277,61.216,72.105,61.216c36.278,0,66.054-26.368,72.572-61.216
		h140.021c6.535,34.848,36.295,61.216,72.122,61.216c40.483,0,73.502-33.435,73.502-74.4c0-40.966-33.019-74.417-73.502-74.417
		c-35.827,0-65.587,26.368-72.122,61.232H503.04c-6.519-34.847-36.294-61.232-72.572-61.232c-35.828,0-66.07,26.368-72.105,61.232
		H218.323C212.274,355.787,182.031,329.418,146.219,329.418L146.219,329.418z M146.219,356.269c26.517,0,47.45,21.198,47.45,47.567
		c0,26.368-20.933,48.032-47.45,48.032c-26.052,0-46.984-21.664-46.984-48.032C99.234,377.466,120.167,356.269,146.219,356.269
		L146.219,356.269z M430.468,356.269c26.503,0,47.435,21.198,47.435,47.567c0,26.368-20.932,48.032-47.435,48.032
		c-26.052,0-46.982-21.664-46.982-48.032C383.486,377.466,404.399,356.269,430.468,356.269L430.468,356.269z M715.168,356.269
		c26.516,0,47.449,21.198,47.449,47.567c0,26.368-20.934,48.014-47.449,48.014c-26.053,0-46.985-21.663-46.985-48.031
		C668.183,377.449,689.115,356.269,715.168,356.269L715.168,356.269z"/>
</g>
</svg>
